<?xml version="1.0" encoding="UTF-8"?>
<svg id="_Слой_2" data-name="Слой 2" xmlns="http://www.w3.org/2000/svg" xmlns:xlink="http://www.w3.org/1999/xlink" viewBox="0 0 283.46 283.46">
  <defs>
    <style>
      .cls-1 {
        fill: #e33025;
      }

      .cls-2 {
        fill: #e05188;
      }

      .cls-3 {
        fill: url(#_Безымянный_градиент_213);
      }

      .cls-4 {
        fill: #1d5540;
      }

      .cls-5 {
        fill: #f2cecb;
      }

      .cls-6 {
        fill: url(#_Безымянный_градиент_14);
      }
    </style>
    <linearGradient id="_Безымянный_градиент_14" data-name="Безымянный градиент 14" x1="148.55" y1="-1446.2" x2="250.6" y2="-1446.2" gradientTransform="translate(1517.06 412.17) rotate(-90)" gradientUnits="userSpaceOnUse">
      <stop offset="0" stop-color="#fff" stop-opacity="0"/>
      <stop offset="1" stop-color="#f2cecb"/>
    </linearGradient>
    <linearGradient id="_Безымянный_градиент_213" data-name="Безымянный градиент 213" x1="288.01" y1="-1304.47" x2="390.06" y2="-1304.47" gradientTransform="translate(1517.06 412.17) rotate(-90)" gradientUnits="userSpaceOnUse">
      <stop offset="0" stop-color="#e33025"/>
      <stop offset="1" stop-color="#e33025" stop-opacity="0"/>
    </linearGradient>
  </defs>
  <g id="_Слой_1-2" data-name="Слой 1">
    <g>
      <rect class="cls-2" width="141.73" height="141.73"/>
      <rect class="cls-4" x="141.73" y="141.73" width="141.73" height="141.73"/>
      <g>
        <rect class="cls-1" y="141.73" width="141.73" height="141.73"/>
        <polygon class="cls-6" points="19.84 212.6 52.86 205.14 34.79 176.52 63.41 194.59 70.87 161.57 78.32 194.59 106.95 176.52 88.87 205.14 121.89 212.6 88.87 220.06 106.95 248.68 78.32 230.6 70.87 263.62 63.41 230.6 34.79 248.68 52.86 220.06 19.84 212.6"/>
      </g>
      <g>
        <rect class="cls-5" x="141.73" width="141.73" height="141.73"/>
        <path class="cls-3" d="M161.57,73.14h0c27.78-.94,50.09-23.24,51.02-51.02h0s0,0,0,0c.94,27.78,23.24,50.09,51.02,51.02h0s0,0,0,0c-27.78.94-50.09,23.24-51.02,51.02h0s0,0,0,0c-.94-27.78-23.24-50.09-51.02-51.02h0Z"/>
      </g>
    </g>
  </g>
</svg>